<?xml version="1.0" encoding="UTF-8"?><svg id="Layer_1" xmlns="http://www.w3.org/2000/svg" viewBox="0 0 490 512"><defs><style>.cls-1{fill:#fff;}.cls-2{fill:#f9ba8f;}.cls-3{fill:#9f2816;}.cls-4{fill:#f3ad2c;}.cls-5{fill:#2c2925;}.cls-6{fill:#edb188;}</style></defs><path class="cls-3" d="M432.23,425c36.04-42.66,57.77-97.79,57.77-158,0-135.31-109.69-245-245-245S0,131.69,0,267c0,60.49,21.93,115.85,58.27,158.59l373.96-.59Z"/><path class="cls-2" d="M330.18,379.92c-31.89,53.97-83.31,54.44-83.31,54.44,0,0-51.38-.47-83.27-54.38-.73,.89-1.48,1.75-2.29,2.55-4.28,.99-8.49,2.08-12.66,3.24,2.29,1,4.29,2.7,5.62,4.98,19.61,33.49,53.8,73.5,92.71,73.5s73.1-40.01,92.71-73.5c1.32-2.26,3.3-3.95,5.57-4.95-4.2-1.17-8.44-2.27-12.74-3.26-.82-.82-1.59-1.7-2.34-2.61h0Z"/><path class="cls-5" d="M377.81,102.36c0-27.33-15.75-38.66-26.16-43.16-5.25-2.27-9.35-6.41-11.43-11.57-4.56-11.29-17.44-30.86-53.48-42.82-52.98-17.58-100.06,18.15-125.38,24.95-16.65,4.48-29.73-5.4-36.73-12.68-2.96-3.08-8.22-2.15-9.91,1.73-5.47,12.6-13.44,37.39-6.15,63.16,.45,1.58-1.15,2.99-2.75,2.44-2.12-.72-4.02-1.4-5.54-1.96-1.56-.57-3.12,.85-2.63,2.38,6.16,19.05,12.14,29.92,17.5,35.78,2.37,2.59,3.96,5.78,4.37,9.21,.8,6.69,2.13,13.82,4.34,20.43,3.26,9.76,5.3,19.86,5.88,30.13,0,.12,.01,.19,.02,.2h236.92s.02-.22,.04-.49c.58-10.07,2.54-20.01,5.77-29.57,7.2-21.28,5.32-48.17,5.32-48.17h0Z"/><path class="cls-5" d="M194.19,114.63s22.01-26.36,6.68-56.12S222.61,5.27,222.61,5.27c-25.49,7.46-46.87,20.64-61.24,24.5-16.64,4.48-29.73-5.4-36.73-12.68-2.96-3.08-8.22-2.15-9.91,1.73-5.47,12.6-13.44,37.39-6.15,63.16,.45,1.58-1.15,2.99-2.75,2.44-2.12-.72-4.02-1.4-5.54-1.96-1.56-.57-3.12,.85-2.63,2.38,6.16,19.05,12.14,29.92,17.5,35.78,2.37,2.59,3.96,5.78,4.37,9.21,.8,6.69,2.13,13.82,4.34,20.43,3.26,9.76,5.3,19.86,5.88,30.13,0,.12,.01,.19,.02,.2h49.96l14.46-65.96Z"/><path class="cls-2" d="M374.26,179.54c-5.31-4.87-15.9-2.4-20.47,.58,1,6.24,1.06,12.63,.19,18.94l-5.4,39.33c0,3.17-.1,6.28-.28,9.34,13.17,3.97,19.71-7.85,20.81-15.96,.47-3.49,1.25-6.93,2.33-10.29,3.5-10.94,16.14-29.73,2.83-41.93h0Z"/><path class="cls-2" d="M119.47,179.54c5.31-4.87,15.9-2.4,20.47,.58-1,6.24-1.06,12.63-.19,18.94l5.4,39.33c0,3.17,.1,6.28,.28,9.34-13.17,3.97-19.71-7.85-20.81-15.96-.47-3.49-1.25-6.93-2.32-10.29-3.51-10.94-16.14-29.73-2.83-41.93Z"/><path class="cls-2" d="M347,159.69c-3.27-5.13-4.71-11.2-4.27-17.25,.27-3.66,.44-8.07,.35-12.83-.04-.63-.06-1.3-.06-2.04-.05-1.39-.13-2.8-.23-4.23-1.28-12.75-8.13-21.92-13.59-27.32-3.64-3.6-9.26-4.31-13.75-1.84-67.44,37.19-123.33,23.45-153.42,9.9-3.65-1.64-7.85,.49-8.81,4.37-3,12.17-2.85,25.32-2.2,34.14,.44,6-1.04,12.01-4.28,17.1-1.87,2.93-3.37,6.04-4.56,9.11-3.88,9.97-5.01,20.79-3.56,31.38l5.4,39.34c0,.07,0,.14,0,.21,5.55,16.2,16.79,39.41,36.87,46l.25,.07c12.08,3.47,21.42,13,25.38,25.16,5.59,17.17,21.47,21.73,40.34,21.73s34.74-4.57,40.34-21.73c3.96-12.15,13.3-21.69,25.39-25.16l.25-.07c20.08-6.59,31.32-29.81,36.87-46.01,0-.07,0-.14,0-.2l5.4-39.33c1.44-10.49,.35-21.19-3.44-31.09-1.21-3.17-2.75-6.38-4.68-9.41h0Z"/><path class="cls-1" d="M283.71,198.96c0-1.85,.35-3.61,.96-5.21-2.41,1.18-4.35,2.52-5.73,3.65-3.23,2.63-8.84,5.97-11.91,7.74-.58,.33-.34,1.22,.33,1.22h.3c2.85,0,5.69,.45,8.39,1.34,4.7,1.55,9.19,2.32,13.35,2.57-3.42-2.34-5.69-6.52-5.69-11.3h0Z"/><path class="cls-1" d="M321.93,201.85c-5.61-5.26-11.01-8.3-15.99-9.84,1.12,2.02,1.77,4.4,1.77,6.94,0,4.16-1.73,7.87-4.44,10.31,4.08-.84,7.27-2.02,9.25-2.92,4.05-1.84,7.11-2.59,8.93-2.9,.76-.13,1.04-1.07,.48-1.6Z"/><path class="cls-5" d="M283.92,194.13c-.68,1.56-1.07,3.29-1.07,5.1,0,4.7,2.54,8.8,6.33,11.01,5.46,.36,10.34-.18,14.34-1.03,2.94-2.34,4.83-5.94,4.83-9.98,0-2.65-.81-5.11-2.19-7.15-9.14-2.89-16.93-.74-22.23,2.04Z"/><path class="cls-5" d="M300.36,200.03c0,2.7-2.19,4.88-4.89,4.88s-4.89-2.19-4.89-4.88,2.19-4.88,4.89-4.88,4.89,2.19,4.89,4.88Z"/><path class="cls-5" d="M332.73,183.76c-.73-4.8-3.64-15.95-14.98-18.53-11.46-2.6-35.62,2.3-45.4,4.52-2.61,.59-4.67,2.57-5.37,5.15l-2.02,7.43c-.17,.63,.41,1.21,1.04,1.03,7.42-2.08,41.57-11.32,51.97-7.98,7.93,2.54,12.01,6.51,13.81,8.8,.34,.43,1.04,.13,.96-.42h0Z"/><path class="cls-1" d="M212.62,198.96c0-1.85-.35-3.61-.96-5.21,2.41,1.18,4.35,2.52,5.73,3.65,3.23,2.63,8.84,5.97,11.91,7.74,.58,.33,.34,1.22-.33,1.22h-.3c-2.85,0-5.69,.45-8.4,1.34-4.7,1.55-9.19,2.32-13.35,2.57,3.41-2.34,5.69-6.52,5.69-11.3Z"/><path class="cls-1" d="M174.4,201.85c5.61-5.26,11.01-8.3,15.99-9.84-1.12,2.02-1.77,4.4-1.77,6.94,0,4.16,1.73,7.87,4.44,10.31-4.08-.84-7.27-2.02-9.25-2.92-4.05-1.84-7.11-2.59-8.93-2.9-.76-.13-1.04-1.07-.48-1.6Z"/><path class="cls-5" d="M212.41,194.13c.68,1.56,1.07,3.29,1.07,5.1,0,4.7-2.54,8.8-6.33,11.01-5.46,.36-10.34-.18-14.34-1.03-2.94-2.34-4.82-5.94-4.82-9.98,0-2.65,.81-5.11,2.19-7.15,9.14-2.89,16.93-.74,22.23,2.04Z"/><path class="cls-5" d="M195.98,200.03c0,2.7,2.19,4.88,4.88,4.88s4.88-2.19,4.88-4.88-2.19-4.88-4.88-4.88-4.88,2.19-4.88,4.88Z"/><path class="cls-5" d="M163.61,183.76c.73-4.8,3.64-15.95,14.99-18.53,11.46-2.6,35.62,2.3,45.4,4.52,2.61,.59,4.67,2.57,5.37,5.15l2.01,7.43c.17,.63-.41,1.21-1.04,1.03-7.42-2.08-41.56-11.32-51.97-7.98-7.93,2.54-12.01,6.51-13.81,8.8-.34,.43-1.04,.13-.96-.42h0Z"/><path class="cls-6" d="M276.79,297.78l-10.91,4.3c-1.23,.48-2.58,.54-3.84,.16l-12.57-3.79-12.57,3.79c-1.26,.38-2.62,.33-3.85-.16l-10.91-4.3c-3.01-1.19-4.49-4.6-3.3-7.61,1.18-3.01,4.59-4.5,7.61-3.3l9.01,3.55,12.26-3.7c1.19-.37,2.43-.34,3.5,0l12.26,3.7,9.01-3.55c3.01-1.18,6.42,.28,7.61,3.3,1.19,3.01-.29,6.42-3.3,7.61h0Z"/><path class="cls-5" d="M291.39,166.12c-7.6,1.15-14.73,2.65-19.05,3.63-2.61,.59-4.67,2.57-5.37,5.15l-2.02,7.43c-.17,.63,.41,1.21,1.04,1.03,4.11-1.15,16.44-4.5,28.39-6.69-4.91-.95-6.71-7.12-2.99-10.55Z"/><path class="cls-5" d="M198,165.2c-7.38-.82-14.54-1.07-19.4,.03-11.35,2.58-14.26,13.73-14.99,18.53-.08,.55,.62,.85,.96,.42,1.8-2.29,5.88-6.25,13.81-8.8,3.96-1.27,11.36-.72,19.41,.57-4.19-2.43-4.06-8.5,.21-10.75h0Z"/><path class="cls-5" d="M351.95,223.25s-9.44,50.94-40.52,61.14l-.25,.07c-11.83,3.4-20.96,12.73-24.84,24.62-5.47,16.79-21,21.26-39.47,21.26s-34-4.47-39.48-21.27c-3.88-11.89-13.02-21.22-24.84-24.62l-.25-.07c-31.08-10.2-40.52-61.14-40.52-61.14-23.89,213.01,105.08,214.19,105.08,214.19,0,0,128.98-1.18,105.09-214.19h0Z"/><path class="cls-6" d="M253.23,311.87h-7.53c-3.24,0-5.87,2.63-5.87,5.86s2.63,5.86,5.87,5.86h7.53c3.24,0,5.86-2.63,5.86-5.86s-2.63-5.86-5.86-5.86Z"/><path class="cls-5" d="M182.3,286.44l.25,.07c8.03,2.31,14.82,7.36,19.56,14.08l5.48-3.64c3.15-2.09,6.86-3.23,10.64-3.11,13.14,.42,24.64-3.41,29.18-5.16,1.32-.51,2.79-.51,4.11,0,4.54,1.75,16.04,5.58,29.18,5.16,3.78-.12,7.49,1.02,10.64,3.11l2.04,1.35c4.6-5.57,10.71-9.75,17.8-11.79l.25-.07c2.92-.96,5.66-2.28,8.21-3.89-8.93-15.27-29.39-36.73-70.17-21.94-42.78-15.52-63.2,8.86-71.4,24.14,1.36,.65,2.77,1.21,4.23,1.69h0Z"/><path class="cls-6" d="M229.79,257.4l4.47-.94c8.31,8.21,22.11,8.19,30.41,0l4.47,.94c3.21,.67,6.38-1.38,7.05-4.6,.68-3.22-1.38-6.38-4.6-7.05l-8.02-1.69c-2.61-.55-5.16,.5-6.39,2.86-3.24,5.02-12.17,5.02-15.43,0-1.23-2.36-3.78-3.41-6.4-2.86l-8.02,1.69c-3.22,.68-5.28,3.84-4.6,7.05,.68,3.22,3.84,5.28,7.05,4.6h0Z"/><path class="cls-4" d="M245,512c75.57,0,143.13-34.22,188.08-88-6.08-1.43-10.76-4.56-19.1-9.27-20.57-11.6-41.42-22.39-63.64-29.43-5.21-1.65-10.9,.54-13.66,5.26-18.99,32.43-52.09,71.16-89.76,71.16s-70.77-38.73-89.76-71.16c-2.76-4.72-8.45-6.91-13.66-5.26-22.22,7.04-43.07,17.83-63.64,29.43-9.8,5.52-14.54,8.88-22.43,9.86,44.94,53.44,112.29,87.41,187.57,87.41h0Z"/><g><path class="cls-5" d="M215.86,256.21c-20.64,3.1-32.13,17.98-37.79,28.53,1.36,.65,2.77,1.22,4.23,1.7l.25,.07c8.03,2.31,14.82,7.36,19.57,14.08l5.48-3.64c3.15-2.09,6.86-3.23,10.64-3.11,2.71,.09,5.35-.01,7.88-.23-23.08-13.88-10.26-37.38-10.25-37.39h0Z"/><path class="cls-5" d="M242.19,378.56c-20.43-25.52,7.28-48.21,7.28-48.21l-.02-.03c-.86,.02-1.72,.03-2.59,.03-18.47,0-34-4.47-39.48-21.26-3.88-11.89-13.02-21.22-24.84-24.62l-.25-.07c-31.08-10.2-40.52-61.14-40.52-61.14-23.89,213.01,105.08,214.19,105.08,214.19,0,0,23.03-24.28-4.67-58.88h0Z"/></g></svg>