<?xml version="1.0" encoding="utf-8"?>
<!-- Generator: Adobe Illustrator 26.5.0, SVG Export Plug-In . SVG Version: 6.00 Build 0)  -->
<svg version="1.1" id="Layer_1" xmlns="http://www.w3.org/2000/svg" xmlns:xlink="http://www.w3.org/1999/xlink" x="0px" y="0px"
	 viewBox="0 0 503.9 512" style="enable-background:new 0 0 503.9 512;" xml:space="preserve">
<style type="text/css">
	.st0{fill:#9F2816;}
	.st1{fill:#FFA000;}
	.st2{fill:#FFFFFF;}
	.st3{fill:#1A1617;}
	.st4{fill:#ECEFF1;}
</style>
<path class="st0" d="M440,424c35.5-42.5,56.9-97.2,56.9-157c0-135.3-109.7-245-245-245S6.9,131.7,6.9,267c0,60,21.6,115,57.4,157.6
	c0,0,0,0,0,0c0.1,0.1,0.2,0.3,0.3,0.4c0.2,0.2,0.3,0.4,0.5,0.6h0c44.9,52.9,111.9,86.4,186.7,86.4l0,0c75.1,0,142.3-33.8,187.2-87h0
	c0.1-0.1,0.2-0.3,0.3-0.4C439.7,424.4,439.8,424.2,440,424C440,424,440,424,440,424L440,424z"/>
<g>
	<path class="st1" d="M44.6,111.1V215c0,22.4,17.6,40,40,40h24c4.8,0,8,3.2,8,8v36.8c0,7.2,8.8,10.4,13.6,5.6l38.4-38.4
		c7.2-7.2,17.6-12,28-12h64c22.4,0,40-17.6,40-40v-104c0-22.4-17.6-40-40-40H84.6C62.2,71.1,44.6,89.5,44.6,111.1z"/>
	<path class="st2" d="M467.8,254.4v103.9c0,22.4-17.6,40-40,40h-24c-4.8,0-8,3.2-8,8v36.8c0,7.2-8.8,10.4-13.6,5.6l-38.4-38.4
		c-7.2-7.2-17.6-12-28-12h-64c-22.4,0-40-17.6-40-40V254.4c0-22.4,17.6-40,40-40h175.9C450.2,214.4,467.8,232.8,467.8,254.4
		L467.8,254.4z"/>
	<path class="st3" d="M398.3,349.6l-48-95.9c-2.4-4-6.4-6.4-10.4-6.4s-8.8,2.4-10.4,6.4l-48,95.9c-3.2,5.6-0.8,12.8,5.6,16
		c5.6,3.2,12.8,0.8,16-5.6l8.8-17.6h56.8l8.8,17.6c2.4,4,6.4,6.4,10.4,6.4c1.6,0,4-0.8,5.6-1.6C399.1,362.3,401.5,355.1,398.3,349.6
		L398.3,349.6z M323.1,318.4l16.8-32.8l16.8,32.8H323.1L323.1,318.4z"/>
	<path class="st4" d="M222.9,191.8c6.4-9.6,9.6-20.8,9.6-32.8c0-32.8-27.2-60-60-60s-60,27.2-60,60s27.2,60,60,60
		c12,0,23.2-4,32.8-9.6l6.4,6.4c2.4,2.4,5.6,3.2,8.8,3.2s6.4-0.8,8.8-3.2c4.8-4.8,4.8-12,0-16.8L222.9,191.8L222.9,191.8z
		 M172.5,194.2c-20,0-36-16-36-36s16-36,36-36s36,16,36,36c0,5.6-1.6,10.4-4,15.2l-7.2-7.2c-4.8-4.8-12-4.8-16.8,0s-4.8,12,0,16.8
		l7.2,7.2C182.9,193.4,178.1,194.2,172.5,194.2L172.5,194.2z"/>
</g>
</svg>
