<svg xmlns="http://www.w3.org/2000/svg" width="193" height="179" viewBox="0 0 193 179"><g transform="translate(-83.038 -1163.462)"><path d="M109.324,1226.5a74.6,74.6,0,0,1,129.226-18.4l16.586-2.361a89.632,89.632,0,0,0-162.4,23.121Z" fill="#f6b828"/><path d="M236.677,1300.2a74.6,74.6,0,0,1-113.949,1.587l-17.128,2.439a89.64,89.64,0,0,0,151.246-6.9Z" fill="#f6b828"/><path d="M188.563,1294.68h0l-.4-2.064a4.138,4.138,0,0,0-.995.02c-1.811.258-2.627,1.013-2.075,4.884.487,3.415,1.465,3.913,3.489,3.625a8.733,8.733,0,0,0,2.328-.693l.515,1.7a12.84,12.84,0,0,1-2.96.836c-3.41.485-5.112-.394-5.78-5.077-.728-5.106.947-6.569,4.322-7.049a10.474,10.474,0,0,1,2.712-.041l.48,3.622Z" fill="#fff"/><path d="M195.84,1300.215h0l1.393-.268-1.223-8.571-1.412.132-.217-1.521,5.1-.726.217,1.521-1.289.235.458,3.212,4.528-.645-.458-3.212-1.3.134-.217-1.521,5.078-.723.217,1.521-1.394.268,1.223,8.571,1.413-.132.217,1.522-5.078.723-.217-1.522,1.289-.236-.506-3.55-4.528.645.506,3.55,1.3-.133.217,1.522-5.1.726Z" fill="#fff"/><path d="M212.5,1297.843h0l1.394-.268L212.668,1289l-1.413.132-.217-1.522,5.2-.741.217,1.522-1.394.268,1.223,8.571,1.413-.132.217,1.521-5.2.741Z" fill="#fff"/><path d="M227.9,1289.078h0l-.4-2.063a4.121,4.121,0,0,0-.994.02c-1.811.258-2.627,1.012-2.074,4.883.486,3.415,1.464,3.913,3.488,3.625a8.73,8.73,0,0,0,2.329-.693l.515,1.7a12.82,12.82,0,0,1-2.961.835c-3.409.486-5.112-.393-5.779-5.076-.729-5.106.947-6.569,4.321-7.05a10.513,10.513,0,0,1,2.712-.041l.481,3.623Z" fill="#fff"/><path d="M235.173,1294.613h0l1.394-.268-1.223-8.571-1.413.132-.217-1.522,4.83-.688.21,1.471-1.026.181.564,3.955,3.008-4.447-1.108.106-.21-1.471,4.83-.688.217,1.522-.952.187-3.137,4.552,4.562,4.042,1-.108.217,1.522-5.007.713-.21-1.471,1.1-.191-4.23-3.744.608,4.26,1.036-.113.21,1.471-4.83.688Z" fill="#fff"/><path d="M256.719,1288.786h0l-.229-.968-2.575.367.5,3.516,3.392-.483-.114-1.433,1.633-.233.444,3.111-8.914,1.269-.217-1.522,1.394-.268-1.223-8.571-1.413.132-.217-1.522,8.914-1.269.432,3.027-1.633.233-.279-1.323-3.392.483.468,3.28,2.575-.367-.049-.976,1.474-.21.5,3.516Z" fill="#fff"/><path d="M264.567,1291.979h0l-.218-1.522,1.394-.268-1.223-8.571-1.413.132-.217-1.522,4.564-.65,4.29,5.685a33.109,33.109,0,0,1,2.057,3.123l.054-.008c-.291-1.148-.558-2.387-.708-3.314l-.658-4.615-1.322.136-.214-1.505,4.67-.665.218,1.522-1.254.231,1.452,10.177-3.126.445-4.308-5.682a33.125,33.125,0,0,1-2.057-3.123l-.071.01c.291,1.149.576,2.385.708,3.316l.658,4.614,1.322-.135.215,1.5Z" fill="#fff"/><path d="M250.036,1222.994a3.226,3.226,0,0,1,2.534.594c1.446,1.093,2.383,3.594,3.019,8.075l13.762-3.38c-1.08-7.376-3.39-12.306-7.058-15.066-3.153-2.372-7.305-3.148-12.685-2.374-5.9.848-10.6,3.214-13.6,6.838-3.1,3.747-4.291,8.793-3.455,14.59,1.7,11.776,9.919,14.966,17.173,17.779l.077.029c5.381,2,10.028,3.717,10.741,8.665a5.811,5.811,0,0,1-.318,3.5,2.968,2.968,0,0,1-2.373,1.531c-3.79.548-5.753-2.009-6.924-9.083l-14.231,3.658a.5.5,0,0,1-.594-.308L220.714,1216.9l-18.991,2.733-3.178,54.191a.5.5,0,0,1-.943.2l-11.14-21.141a.506.506,0,0,1-.047-.336l8.185-39.091-16.18,2.287-3.9,27.2a.5.5,0,0,1-.425.424l-.433.062a.5.5,0,0,1-.525-.286l-8.28-17.924-81.821,11.65,1.812,12.568,10.223-1.47a.5.5,0,0,1,.566.418l7.691,49.258,14.291-2.263-7.585-49.057a.5.5,0,0,1,.423-.571l8.773-1.213a.5.5,0,0,1,.567.424l7.078,49.093,29.733-4.327a.427.427,0,0,1,.071-.006.5.5,0,0,1,.492.593l-2.974,15.795,17.833-2.38,4.192-37.326a.5.5,0,0,1,.426-.439l.346-.05a.506.506,0,0,1,.528.292l8.587,19.289,26.549-3.745.261-12.4a.5.5,0,0,1,.429-.484l10.286-1.481a.5.5,0,0,1,.549.344l3.752,11.82,15.388-2.214-1.938-5.181a.5.5,0,0,1,.822-.53c3.7,3.683,9.083,4.957,16.458,3.9,11.825-1.7,17.6-9.674,15.84-21.874-1.651-11.451-10.573-15.029-17.744-17.9l-.965-.388c-4.824-2.074-8.026-3.755-8.652-8.094a4.191,4.191,0,0,1,.421-2.745A3.264,3.264,0,0,1,250.036,1222.994Zm-85.508,33.316-4.267,19.731a.5.5,0,0,1-.418.389l-20.144,2.9a.408.408,0,0,1-.071.006.5.5,0,0,1-.494-.429l-1.731-12a.5.5,0,0,1,.424-.565l14.2-2.043-1.762-12.224-14.2,2.044a.5.5,0,0,1-.567-.423l-1.594-11.055a.5.5,0,0,1,.424-.566l20.429-2.939a.5.5,0,0,1,.509.252l9.211,16.581A.5.5,0,0,1,164.528,1256.31Zm55.559-.884a.506.506,0,0,1-.348.222l-6.139.882a.5.5,0,0,1-.571-.491l-.161-21.309a.5.5,0,0,1,.429-.5l.519-.075a.5.5,0,0,1,.553.359l5.78,20.5A.5.5,0,0,1,220.087,1255.426Z" fill="#fff"/><path d="M269.032,1210.311l-.973,0-.007,3.715-.9,0,.007-3.715-.973,0,0-.736,2.844.006Z" fill="#fff"/><path d="M270.773,1209.578l.63,3.142h.013l.648-3.14,1.329,0-.008,4.45-.823,0,.007-3.552h-.013l-.8,3.552-.7,0-.786-3.554h-.012l-.007,3.552h-.823l.008-4.45Z" fill="#fff"/><path d="M176.229,1189.026,153.39,1211.45l12.261-1.772,5.717,10.977Z" fill="#f6b828"/><path d="M166.192,1196.944l-9.764-4.979,5.018,9.639Z" fill="#f6b828"/><path d="M175.671,1201.791l-1.012,6.585,10.807-1.562Z" fill="#f6b828"/></g></svg>